# File created by Blade
# Date/Time:  Mon Sep 22 17:46:01 2014
# Frame Rate: 120.000 fps
#------------------------------------------------------
:FULLY-SPECIFIED
:DEGREES
1134
root 5.374243 37.454784 3.982832 -9.876887 1.591681 -5.756995
RightUpLeg -5.315373 2.537777 1.334574
RightLeg -3.086217 -0.000000 0.000000
RightFoot 3.266659 -24.178601 11.188710
RightToeBase -4.139991 -0.000000 0.000000
LeftUpLeg 15.494112 -6.605300 -2.898011
LeftLeg -1.097350 -0.000000 0.000000
LeftFoot -9.331393 12.813005 -9.478274
LeftToeBase 8.346913 -0.000000 -0.000000
Spine 16.017984 -6.477162 -5.119960
RightShoulder -0.618349 -32.538904 -3.545886
RightArm 21.207839 -24.970483 63.999374
RightForeArm 7.580259 -0.000000 42.034300
RightHand -3.705391 -0.000000 -7.378218
RightHandThumb1 -24.326973 -0.000000 -32.862282
LeftShoulder -18.513473 33.506765 -0.104063
LeftArm 55.975428 -11.169099 -70.468126
LeftForeArm 21.370785 -0.000000 103.270571
LeftHand -24.747411 -0.000000 15.264580
LeftHandThumb1 -26.253704 0.000000 33.147579
Head 27.467073 0.268287 12.613074
1135
root 5.370899 37.453090 3.982498 -9.887181 1.627313 -5.735793
RightUpLeg -5.303892 2.590721 1.363416
RightLeg -2.926146 -0.000000 0.000000
RightFoot 3.252342 -24.241645 11.207557
RightToeBase -4.238630 -0.000000 0.000000
LeftUpLeg 15.469556 -6.665202 -2.930002
LeftLeg -1.026747 -0.000000 0.000000
LeftFoot -9.370965 12.836704 -9.487865
LeftToeBase 8.301565 -0.000000 -0.000000
Spine 16.064361 -6.512317 -5.229854
RightShoulder -0.652901 -32.499768 -3.528545
RightArm 21.238238 -25.019801 63.987744
RightForeArm 7.637974 0.000000 42.040039
RightHand -3.750530 -0.000000 -7.162017
RightHandThumb1 -24.326973 -0.000000 -32.862282
LeftShoulder -18.481647 33.384134 -0.039160
LeftArm 55.955022 -11.220088 -70.630502
LeftForeArm 21.359972 -0.000000 103.235815
LeftHand -24.684889 0.000000 15.206057
LeftHandThumb1 -26.253704 0.000000 33.147579
Head 27.346274 0.332746 12.640959
1136
root 5.368393 37.451761 3.983647 -9.908826 1.622394 -5.726620
RightUpLeg -5.274852 2.740983 1.397578
RightLeg -2.782826 -0.000000 0.000000
RightFoot 3.169599 -24.249138 11.276162
RightToeBase -4.121715 -0.000000 0.000000
LeftUpLeg 15.468037 -6.696195 -2.950323
LeftLeg -0.972483 -0.000000 0.000000
LeftFoot -9.402035 12.875159 -9.474964
LeftToeBase 8.347500 -0.000000 -0.000000
Spine 16.113574 -6.513793 -5.305932
RightShoulder -0.652172 -32.456593 -3.545041
RightArm 21.207330 -25.012341 64.034845
RightForeArm 7.682629 -0.000000 42.095024
RightHand -3.697266 -0.000000 -7.404966
RightHandThumb1 -24.326973 -0.000000 -32.862282
LeftShoulder -18.441762 33.286278 0.006055
LeftArm 55.940010 -11.273584 -70.777353
LeftForeArm 21.374528 0.000000 103.215387
LeftHand -24.615517 -0.000000 15.275331
LeftHandThumb1 -26.253704 0.000000 33.147579
Head 27.221114 0.392237 12.621798
1137
root 5.367282 37.449778 3.984962 -9.920292 1.594360 -5.715456
RightUpLeg -5.264908 2.947126 1.428958
RightLeg -2.614374 -0.000000 0.000000
RightFoot 3.177405 -24.247320 11.124250
RightToeBase -4.170222 -0.000000 0.000000
LeftUpLeg 15.459727 -6.703751 -2.968486
LeftLeg -0.922638 -0.000000 0.000000
LeftFoot -9.426672 12.915238 -9.450245
LeftToeBase 8.288392 -0.000000 -0.000000
Spine 16.149894 -6.487950 -5.360597
RightShoulder -0.668775 -32.432634 -3.565789
RightArm 21.187508 -24.985845 64.070074
RightForeArm 7.526778 -0.000000 42.173417
RightHand -3.704490 -0.000000 -7.205421
RightHandThumb1 -24.326973 -0.000000 -32.862282
LeftShoulder -18.424364 33.234979 0.005245
LeftArm 55.987622 -11.325919 -70.899307
LeftForeArm 21.367593 -0.000000 103.197950
LeftHand -24.621974 -0.000000 15.405788
LeftHandThumb1 -26.253704 0.000000 33.147579
Head 27.095078 0.464109 12.584558
1138
root 5.365503 37.447822 3.989136 -9.941536 1.540159 -5.716342
RightUpLeg -5.226894 3.178797 1.477094
RightLeg -2.494220 -0.000000 0.000000
RightFoot 3.196047 -24.187711 10.971798
RightToeBase -4.423346 -0.000000 0.000000
LeftUpLeg 15.476242 -6.681524 -2.966373
LeftLeg -0.887978 -0.000000 0.000000
LeftFoot -9.459780 12.920584 -9.455902
LeftToeBase 8.267841 -0.000000 -0.000000
Spine 16.188906 -6.435489 -5.395854
RightShoulder -0.688477 -32.407390 -3.580640
RightArm 21.135383 -24.966943 64.090013
RightForeArm 7.462784 -0.000000 42.316393
RightHand -3.744537 -0.000000 -7.330989
RightHandThumb1 -24.326973 -0.000000 -32.862282
LeftShoulder -18.414254 33.194694 -0.005574
LeftArm 56.060085 -11.370424 -71.038404
LeftForeArm 21.381115 -0.000000 103.183666
LeftHand -24.670966 -0.000000 15.372984
LeftHandThumb1 -26.253704 0.000000 33.147579
Head 26.979364 0.492916 12.496249
1139
root 5.364141 37.445640 3.995029 -9.962360 1.478666 -5.720829
RightUpLeg -5.163751 3.470973 1.523183
RightLeg -2.429366 -0.000000 0.000000
RightFoot 3.014420 -24.161509 11.120683
RightToeBase -4.293077 -0.000000 0.000000
LeftUpLeg 15.504932 -6.681781 -2.969300
LeftLeg -0.871138 -0.000000 0.000000
LeftFoot -9.471219 12.978456 -9.385325
LeftToeBase 8.243101 -0.000000 -0.000000
Spine 16.223197 -6.376403 -5.420414
RightShoulder -0.712749 -32.416018 -3.604012
RightArm 21.112911 -24.920286 64.095857
RightForeArm 7.508920 0.000000 42.460150
RightHand -3.616427 0.000000 -7.531412
RightHandThumb1 -24.326973 -0.000000 -32.862282
LeftShoulder -18.443365 33.212768 -0.048454
LeftArm 56.191298 -11.401228 -71.155714
LeftForeArm 21.397978 -0.000000 103.163946
LeftHand -24.711796 -0.000000 15.371203
LeftHandThumb1 -26.253704 0.000000 33.147579
Head 26.882940 0.515795 12.385276
1140
root 5.361342 37.444308 4.000116 -9.962480 1.410275 -5.744127
RightUpLeg -5.084401 3.809889 1.580333
RightLeg -2.464070 -0.000000 0.000000
RightFoot 2.958566 -24.135906 11.060346
RightToeBase -4.357791 -0.000000 0.000000
LeftUpLeg 15.513875 -6.656611 -2.940085
LeftLeg -0.862216 -0.000000 0.000000
LeftFoot -9.458759 12.999828 -9.328937
LeftToeBase 8.038437 -0.000000 -0.000000
Spine 16.221294 -6.308203 -5.404172
RightShoulder -0.731524 -32.440244 -3.632553
RightArm 21.067382 -24.836818 64.118968
RightForeArm 7.550188 -0.000000 42.629218
RightHand -3.534834 -0.000000 -7.490163
RightHandThumb1 -24.326973 -0.000000 -32.862282
LeftShoulder -18.450383 33.254916 -0.097997
LeftArm 56.314883 -11.433401 -71.248525
LeftForeArm 21.422677 -0.000000 103.157728
LeftHand -24.807190 -0.000000 15.343197
LeftHandThumb1 -26.253704 0.000000 33.147579
Head 26.819063 0.571888 12.302750
1141
root 5.357946 37.443684 4.005300 -9.967541 1.344078 -5.772014
RightUpLeg -4.988993 4.160921 1.640835
RightLeg -2.504245 -0.000000 0.000000
RightFoot 2.836714 -24.123968 11.104331
RightToeBase -4.470857 -0.000000 0.000000
LeftUpLeg 15.533826 -6.664356 -2.916203
LeftLeg -0.862304 -0.000000 0.000000
LeftFoot -9.443127 13.066309 -9.241554
LeftToeBase 7.898656 -0.000000 -0.000000
Spine 16.225393 -6.252652 -5.386964
RightShoulder -0.725297 -32.459376 -3.690815
RightArm 21.032061 -24.772792 64.148590
RightForeArm 7.680174 -0.000000 42.781555
RightHand -3.551327 0.000000 -7.520202
RightHandThumb1 -24.326973 -0.000000 -32.862282
LeftShoulder -18.461580 33.258952 -0.140583
LeftArm 56.400454 -11.447195 -71.312766
LeftForeArm 21.428246 -0.000000 103.146561
LeftHand -24.821229 -0.000000 15.338105
LeftHandThumb1 -26.253704 0.000000 33.147579
Head 26.775292 0.631688 12.174911
1142
root 5.354824 37.443391 4.011093 -9.955157 1.273949 -5.798816
RightUpLeg -4.932807 4.462076 1.701662
RightLeg -2.511375 -0.000000 0.000000
RightFoot 2.700085 -24.074923 11.066591
RightToeBase -4.295992 -0.000000 0.000000
LeftUpLeg 15.536723 -6.673770 -2.894098
LeftLeg -0.859507 -0.000000 0.000000
LeftFoot -9.439104 13.137718 -9.194569
LeftToeBase 7.777735 -0.000000 -0.000000
Spine 16.198061 -6.195672 -5.367196
RightShoulder -0.721063 -32.478122 -3.739153
RightArm 21.000824 -24.743837 64.139740
RightForeArm 7.606729 -0.000000 42.942087
RightHand -3.565596 -0.000000 -7.473341
RightHandThumb1 -24.326973 -0.000000 -32.862282
LeftShoulder -18.468432 33.267021 -0.173090
LeftArm 56.459258 -11.441377 -71.364005
LeftForeArm 21.500367 0.000000 103.153814
LeftHand -24.877312 0.000000 15.286096
LeftHandThumb1 -26.253704 0.000000 33.147579
Head 26.782289 0.653682 12.027131
1143
root 5.352855 37.443745 4.015404 -9.939683 1.212179 -5.819907
RightUpLeg -4.925235 4.641991 1.770510
RightLeg -2.432095 -0.000000 0.000000
RightFoot 2.572181 -23.923954 11.134351
RightToeBase -4.395787 -0.000000 0.000000
LeftUpLeg 15.532327 -6.710810 -2.885848
LeftLeg -0.854620 -0.000000 0.000000
LeftFoot -9.436220 13.231222 -9.121961
LeftToeBase 7.694257 -0.000000 -0.000000
Spine 16.165097 -6.136752 -5.343750
RightShoulder -0.710589 -32.526145 -3.804347
RightArm 21.000181 -24.706084 64.138616
RightForeArm 7.578047 -0.000000 43.086212
RightHand -3.539947 -0.000000 -7.734235
RightHandThumb1 -24.326973 -0.000000 -32.862282
LeftShoulder -18.443254 33.259443 -0.192910
LeftArm 56.479112 -11.438199 -71.363432
LeftForeArm 21.497045 -0.000000 103.157356
LeftHand -24.830911 -0.000000 15.198717
LeftHandThumb1 -26.253704 0.000000 33.147579
Head 26.810842 0.713660 11.904318
